# 3ds Max Wavefront OBJ Exporter v0.97b - (c)2007 guruware
# File Created: 11.12.2018 19:08:50

mtllib I.mtl

#
# object I
#

v  -809.0375 0.0000 -134.7899
v  455.4097 0.0000 -134.7899
v  455.4097 0.0000 122.3052
v  -809.0375 0.0000 122.3052
v  455.4097 10.7123 -117.1982
v  -809.0375 10.7123 -117.1982
v  -809.0375 10.7123 104.7134
v  455.4097 10.7123 104.7134
v  455.4097 32.1369 -134.7899
v  -809.0375 32.1369 -134.7899
v  -809.0375 32.1369 -117.1982
v  455.4097 32.1369 -117.1982
v  -809.0375 32.1369 122.3052
v  455.4097 32.1369 122.3052
v  455.4097 32.1369 104.7134
v  -809.0375 32.1369 104.7134
# 16 vertices

vn 0.0000 -1.0000 -0.0000
vn 0.0000 1.0000 -0.0000
vn 1.0000 0.0000 -0.0000
vn -1.0000 0.0000 -0.0000
vn 0.0000 0.0000 -1.0000
vn -0.0000 0.0000 1.0000
vn 0.0000 0.0000 1.0000
# 7 vertex normals

vt 0.1256 0.8910 0.0000
vt 0.2897 0.8910 0.0000
vt 0.2897 0.5845 0.0000
vt 0.1256 0.5845 0.0000
vt 0.0360 0.9524 0.0000
vt 0.3729 0.9524 0.0000
vt 0.3729 0.4903 0.0000
vt 0.0360 0.4903 0.0000
vt 0.0360 0.9890 0.0000
vt 0.0360 0.4537 0.0000
vt 0.3729 0.4537 0.0000
vt 0.3729 0.9890 0.0000
vt 0.4373 0.5165 0.0000
vt 0.4373 0.9484 0.0000
vt 0.3972 0.9484 0.0000
vt 0.3972 0.5165 0.0000
vt 0.3978 0.9486 0.0000
vt 0.3978 0.5166 0.0000
vt 0.4379 0.5166 0.0000
vt 0.4379 0.9486 0.0000
# 20 texture coords

g I
usemtl _pozzac02___Default
s 2
f 1/1/1 2/2/1 3/3/1 4/4/1 
s 4
f 5/5/2 6/6/2 7/7/2 8/8/2 
s 16
f 2/9/3 5/5/3 8/8/3 3/10/3 
s 64
f 4/11/4 7/7/4 6/6/4 1/12/4 
s 4
f 9/13/2 10/14/2 11/15/2 12/16/2 
f 13/17/2 14/18/2 15/19/2 16/20/2 
s off
f 2/13/5 1/14/5 10/14/5 9/13/5 
f 1/14/4 6/15/4 11/15/4 10/14/4 
f 6/15/6 5/16/6 12/16/6 11/15/6 
f 5/16/3 2/13/3 9/13/3 12/16/3 
f 4/17/7 3/18/7 14/18/7 13/17/7 
f 3/18/3 8/19/3 15/19/3 14/18/3 
f 8/19/5 7/20/5 16/20/5 15/19/5 
f 7/20/4 4/17/4 13/17/4 16/20/4 
# 14 polygons

