# 3ds Max Wavefront OBJ Exporter v0.97b - (c)2007 guruware
# File Created: 11.12.2018 19:08:17

mtllib up.mtl

#
# object up
#

v  882.5264 0.0000 -134.7899
v  1121.7677 0.0000 -134.7899
v  1121.7677 0.0000 122.3052
v  882.5264 0.0000 122.3052
v  1851.9854 295.1643 -117.1982
v  1121.7677 10.7123 -117.1982
v  1121.7677 10.7123 104.7134
v  1851.9854 295.1643 104.7134
v  2357.7720 284.4520 -134.7899
v  2357.7720 295.1643 -117.1982
v  2357.7720 295.1643 104.7134
v  2357.7720 284.4520 122.3052
v  882.5264 10.7123 104.7134
v  882.5264 10.7123 -117.1982
v  1851.9854 316.5889 -134.7899
v  1121.7677 32.1369 -134.7899
v  1121.7677 32.1369 -117.1982
v  1851.9854 316.5889 -117.1982
v  882.5264 32.1369 122.3052
v  1121.7677 32.1369 122.3052
v  1121.7677 32.1369 104.7134
v  882.5264 32.1369 104.7134
v  1851.9854 284.4520 -134.7899
v  882.5264 32.1369 -117.1982
v  882.5264 32.1369 -134.7899
v  2357.7720 316.5889 -134.7899
v  2357.7720 316.5889 -117.1982
v  2357.7720 316.5889 104.7134
v  2357.7720 316.5889 122.3052
v  1851.9854 316.5889 104.7134
v  1851.9854 284.4520 122.3052
v  1851.9854 316.5889 122.3052
# 32 vertices

vn 0.0000 -1.0000 -0.0000
vn 0.1847 -0.9828 -0.0000
vn -0.3630 0.9318 -0.0000
vn -0.1847 0.9828 -0.0000
vn 1.0000 0.0000 -0.0000
vn -1.0000 0.0000 -0.0000
vn 0.0000 1.0000 -0.0000
vn -0.0000 0.0000 -1.0000
vn -0.0000 0.0000 1.0000
vn 0.0000 0.0000 1.0000
vn 0.0000 0.0000 -1.0000
vn 0.3630 -0.9318 -0.0000
vn 0.0000 -0.0000 1.0000
# 13 vertex normals

vt 0.0279 0.4176 0.0000
vt 0.1001 0.4176 0.0000
vt 0.1001 0.0954 0.0000
vt 0.0279 0.0954 0.0000
vt 0.3207 0.3956 0.0000
vt 0.1001 0.3956 0.0000
vt 0.1001 0.1174 0.0000
vt 0.3207 0.1174 0.0000
vt 0.4735 0.4176 0.0000
vt 0.4735 0.3956 0.0000
vt 0.4735 0.1174 0.0000
vt 0.4735 0.0954 0.0000
vt 0.0279 0.1174 0.0000
vt 0.0279 0.3956 0.0000
vt 0.3218 0.0743 0.0000
vt 0.1006 0.0743 0.0000
vt 0.1006 0.0262 0.0000
vt 0.3218 0.0262 0.0000
vt 0.0263 0.0293 0.0000
vt 0.0988 0.0293 0.0000
vt 0.0988 0.0773 0.0000
vt 0.0263 0.0773 0.0000
vt 0.0282 0.0743 0.0000
vt 0.0282 0.0262 0.0000
vt 0.4751 0.0262 0.0000
vt 0.4751 0.0743 0.0000
vt 0.4732 0.0293 0.0000
vt 0.4732 0.0773 0.0000
vt 0.3200 0.0773 0.0000
vt 0.3207 0.4176 0.0000
vt 0.3207 0.0954 0.0000
vt 0.3200 0.0293 0.0000
# 32 texture coords

g up
usemtl _pozzac02___Default
s 2
f 1/1/1 2/2/2 3/3/2 4/4/1 
s 4
f 5/5/3 6/6/4 7/7/4 8/8/3 
s 16
f 9/9/5 10/10/5 11/11/5 12/12/5 
s 64
f 4/4/6 13/13/6 14/14/6 1/1/6 
s 4
f 15/15/3 16/16/4 17/17/4 18/18/3 
f 19/19/7 20/20/4 21/21/4 22/22/7 
s off
f 2/16/8 16/16/8 15/15/8 23/15/8 
f 1/23/6 14/24/6 24/24/6 25/23/6 
f 6/17/9 17/17/9 24/24/9 14/24/9 
f 10/25/5 9/26/5 26/26/5 27/25/5 
f 3/20/10 20/20/10 19/19/10 4/19/10 
f 12/27/5 11/28/5 28/28/5 29/27/5 
f 7/21/11 21/21/11 30/29/11 8/29/11 
f 13/22/6 4/19/6 19/19/6 22/22/6 
s 2
f 23/30/12 31/31/12 3/3/2 2/2/2 
s 4
f 14/14/7 13/13/7 7/7/4 6/6/4 
f 25/23/7 24/24/7 17/17/4 16/16/4 
f 32/32/3 30/29/3 21/21/4 20/20/4 
s off
f 1/23/11 25/23/11 16/16/11 2/16/11 
f 5/18/9 18/18/9 17/17/9 6/17/9 
f 31/32/13 32/32/13 20/20/13 3/20/13 
f 13/22/11 22/22/11 21/21/11 7/21/11 
f 23/15/11 15/15/11 26/26/11 9/26/11 
f 15/15/7 18/18/7 27/25/7 26/26/7 
f 18/18/10 5/18/10 10/25/10 27/25/10 
f 5/5/7 8/8/7 11/11/7 10/10/7 
f 8/29/11 30/29/11 28/28/11 11/28/11 
f 30/29/7 32/32/7 29/27/7 28/28/7 
f 32/32/13 31/32/13 12/27/13 29/27/13 
f 31/31/1 23/30/1 9/9/1 12/12/1 
# 30 polygons

